<svg xmlns="http://www.w3.org/2000/svg" xmlns:xlink="http://www.w3.org/1999/xlink" viewBox="0 0 283.14 323.24"><defs><style>.cls-1{fill:url(#名称未設定グラデーション_128);}.cls-2{fill:url(#名称未設定グラデーション_129);}.cls-3{fill:url(#名称未設定グラデーション_128-2);}.cls-4{fill:url(#名称未設定グラデーション_118);}.cls-5{fill:url(#名称未設定グラデーション_129-2);}</style><linearGradient id="&#x540D;&#x79F0;&#x672A;&#x8A2D;&#x5B9A;&#x30B0;&#x30E9;&#x30C7;&#x30FC;&#x30B7;&#x30E7;&#x30F3;_128" x1="25.56" y1="278.4" x2="25.56" gradientUnits="userSpaceOnUse"><stop offset="0" stop-color="#f18900"></stop><stop offset="1" stop-color="#fff100"></stop></linearGradient><linearGradient id="&#x540D;&#x79F0;&#x672A;&#x8A2D;&#x5B9A;&#x30B0;&#x30E9;&#x30C7;&#x30FC;&#x30B7;&#x30E7;&#x30F3;_129" x1="119.76" y1="161.62" x2="162.4" y2="161.62" gradientUnits="userSpaceOnUse"><stop offset="0" stop-color="#fff100"></stop><stop offset="1" stop-color="#f18900"></stop></linearGradient><linearGradient id="&#x540D;&#x79F0;&#x672A;&#x8A2D;&#x5B9A;&#x30B0;&#x30E9;&#x30C7;&#x30FC;&#x30B7;&#x30E7;&#x30F3;_128-2" x1="80.97" y1="219.68" x2="80.97" y2="34.26" xlink:href="#&#x540D;&#x79F0;&#x672A;&#x8A2D;&#x5B9A;&#x30B0;&#x30E9;&#x30C7;&#x30FC;&#x30B7;&#x30E7;&#x30F3;_128"></linearGradient><linearGradient id="&#x540D;&#x79F0;&#x672A;&#x8A2D;&#x5B9A;&#x30B0;&#x30E9;&#x30C7;&#x30FC;&#x30B7;&#x30E7;&#x30F3;_118" x1="87.41" y1="75.1" x2="210.06" y2="146.37" xlink:href="#&#x540D;&#x79F0;&#x672A;&#x8A2D;&#x5B9A;&#x30B0;&#x30E9;&#x30C7;&#x30FC;&#x30B7;&#x30E7;&#x30F3;_128"></linearGradient><linearGradient id="&#x540D;&#x79F0;&#x672A;&#x8A2D;&#x5B9A;&#x30B0;&#x30E9;&#x30C7;&#x30FC;&#x30B7;&#x30E7;&#x30F3;_129-2" x1="-7.41" y1="307.06" x2="273.54" y2="146.28" xlink:href="#&#x540D;&#x79F0;&#x672A;&#x8A2D;&#x5B9A;&#x30B0;&#x30E9;&#x30C7;&#x30FC;&#x30B7;&#x30E7;&#x30F3;_129"></linearGradient></defs><g id="&#x30EC;&#x30A4;&#x30E4;&#x30FC;_2" data-name="&#x30EC;&#x30A4;&#x30E4;&#x30FC; 2"><g id="&#x30EC;&#x30A4;&#x30E4;&#x30FC;_1-2" data-name="&#x30EC;&#x30A4;&#x30E4;&#x30FC; 1"><path class="cls-1" d="M51.13,249a6,6,0,0,1-9-5.19V23.35a6,6,0,0,0-3-5.19L9,.8A6,6,0,0,0,0,6V278.4Z"></path><path class="cls-2" d="M128.73,138.83a6,6,0,0,0-9,5.19v35.2a6,6,0,0,0,9,5.19l30.67-17.58a6,6,0,0,0,0-10.38Z"></path><path class="cls-3" d="M68.59,218.88,99.3,201.27a6,6,0,0,0,3-5.19V54.43L68.6,35.07a6,6,0,0,0-9,5.19V213.68A6,6,0,0,0,68.59,218.88Z"></path><path class="cls-4" d="M111.27,108.66,183,149.87a6,6,0,0,0,5.95,0l30.74-17.62a6,6,0,0,0,0-10.37L102.3,54.43v59.42A6,6,0,0,1,111.27,108.66Z"></path><path class="cls-5" d="M280.13,156.6l-30.89-17.75a6,6,0,0,0-6,0L0,278.4v38.85a6,6,0,0,0,9,5.19L280.13,167A6,6,0,0,0,280.13,156.6Z"></path></g></g></svg>